<svg xmlns="http://www.w3.org/2000/svg" id="a" viewBox="0.5 0 477.85 100"><defs><style>			.b{fill:#fff;}.c{fill:red;}		</style></defs><g><path class="b" d="m103.45,1.6h17.55c9.05,0,14.76,3.13,17.41,9.68,2.92,7.26,2.92,20.36,2.92,38.72s-.28,32.03-2.92,38.72c-2.65,6.83-8.22,9.68-17.41,9.68h-17.55V1.6Zm18.25,81.72c1.39,0,1.81-.85,1.81-2.85V19.82c0-2.42-.42-3.13-1.81-3.13h-.42v66.63h.42Z"></path><path class="b" d="m145.52,1.6h19.22v96.81h-19.22V1.6Z"></path><path class="b" d="m168.92,50c0-21.5,0-32.6,2.65-40.15,2.23-6.41,9.05-9.4,16.3-9.4s13.79,2.99,16.3,9.4c2.37,6.12,2.51,19.22,2.65,35.02h-17.83v-27.62c0-1.57-.7-1.71-1.11-1.71s-1.11.14-1.11,1.71v65.49c0,1.57.7,1.71,1.11,1.71s1.11-.14,1.11-1.71v-18.51h-1.11v-15.38h18.94v49.54h-8.91l-2.23-6.55h-.42c-1.53,5.41-4.6,7.69-11.56,7.69-5.15,0-9.75-3.42-12.12-9.68-2.65-7.12-2.65-22.21-2.65-39.86Z"></path><path class="b" d="m210.98,1.6h19.22v96.81h-19.22V1.6Z"></path><path class="b" d="m234.38,63.67h17.83v19.08c0,1.57.56,1.71,1.11,1.71s1.11-.14,1.11-1.71v-14.52c0-3.84-.14-4.98-2.09-6.83l-10.31-9.97c-5.15-5.12-7.66-10.53-7.66-24.49,0-5.13.28-12.24,2.09-16.8,3.06-7.55,9.05-9.68,16.85-9.68s14.62,3.13,16.99,9.68c1.95,5.27,1.95,17.23,1.95,27.9h-17.83v-20.79c0-1.57-.7-1.71-1.11-1.71s-1.11.14-1.11,1.71v14.52c0,4.56,0,5.69,2.09,7.69l10.17,9.82c4.6,4.56,7.8,9.82,7.8,22.35,0,4.27-.14,12.53-2.37,18.22-2.65,6.41-7.24,9.68-16.58,9.68-8.22,0-15.04-3.99-16.99-9.68-1.81-5.41-1.95-10.11-1.95-26.2Z"></path><path class="b" d="m276.45,1.6h25.49l3.2,27.76c.97,8.54,1.67,28.33,1.67,28.33h.56s.7-19.79,1.67-28.33l3.2-27.76h25.49v96.81h-17.83v-26.2c0-5.41,1.67-40.43,1.67-40.43l-.84-.14s-3.2,30.32-3.9,37.02l-3.62,29.75h-12.26l-3.62-29.75c-.7-6.55-3.9-37.02-3.9-37.02l-.83.14s1.67,35.02,1.67,40.43v26.2h-17.83V1.6Z"></path><path class="b" d="m342.19,1.6h19.22v96.81h-19.22V1.6Z"></path><path class="b" d="m370.19,18.11h-6.27V1.6h31.48v16.51h-5.99v80.29h-19.22V18.11Z"></path><path class="b" d="m397.9,1.6h17.83v42.28h2.23V1.6h17.83v96.81h-17.83v-37.73h-2.23v37.73h-17.83V1.6Z"></path><path class="b" d="m439.97,63.67h17.83v19.08c0,1.57.56,1.71,1.11,1.71s1.11-.14,1.11-1.71v-14.52c0-3.84-.14-4.98-2.09-6.83l-10.31-9.97c-5.15-5.12-7.66-10.53-7.66-24.49,0-5.13.28-12.24,2.09-16.8,3.06-7.55,9.05-9.68,16.85-9.68s14.62,3.13,16.99,9.68c1.95,5.27,1.95,17.23,1.95,27.9h-17.83v-20.79c0-1.57-.7-1.71-1.11-1.71s-1.11.14-1.11,1.71v14.52c0,4.56,0,5.69,2.09,7.69l10.17,9.82c4.6,4.56,7.8,9.82,7.8,22.35,0,4.27-.14,12.53-2.37,18.22-2.65,6.41-7.24,9.68-16.57,9.68-8.22,0-15.04-3.99-16.99-9.68-1.81-5.41-1.95-10.11-1.95-26.2Z"></path></g><circle class="c" cx="50.55" cy="50" r="49.55"></circle></svg>